<?xml version="1.0" encoding="UTF-8"?>
<svg xmlns="http://www.w3.org/2000/svg" version="1.1" xmlns:xlink="http://www.w3.org/1999/xlink" viewBox="0 0 1366 768">
  <defs>
    <style>
      .cls-1 {
        fill: url(#linear-gradient-2);
      }

      .cls-2 {
        fill: none;
        stroke: #334154;
      }

      .cls-2, .cls-3, .cls-4 {
        stroke-miterlimit: 10;
      }

      .cls-5, .cls-4 {
        fill: #2190ff;
      }

      .cls-6 {
        fill: #334154;
      }

      .cls-3 {
        stroke: #000;
      }

      .cls-4 {
        stroke: #2190ff;
        stroke-width: 2px;
      }

      .cls-7 {
        fill: url(#linear-gradient-3);
      }

      .cls-8 {
        fill: url(#linear-gradient);
      }
    </style>
    <linearGradient id="linear-gradient" x1="280.37" y1="418.52" x2="622.12" y2="418.52" gradientUnits="userSpaceOnUse">
      <stop offset=".33" stop-color="#334154"/>
      <stop offset=".56" stop-color="#334154"/>
      <stop offset="1" stop-color="#2190ff"/>
    </linearGradient>
    <linearGradient id="linear-gradient-2" x1="602" y1="406.04" x2="630.08" y2="377.95" gradientUnits="userSpaceOnUse">
      <stop offset=".07" stop-color="#29abe2"/>
      <stop offset=".45" stop-color="#2190ff"/>
      <stop offset="1" stop-color="#2190ff"/>
    </linearGradient>
    <linearGradient id="linear-gradient-3" x1="640" y1="421" x2="640" y2="421" xlink:href="#linear-gradient-2"/>
  </defs>
  <!-- Generator: Adobe Illustrator 28.6.0, SVG Export Plug-In . SVG Version: 1.2.0 Build 709)  -->
  <g>
    <g id="Layer_1">
      <path class="cls-4" d="M1042,178"/>
      <path class="cls-4" d="M1042,178"/>
      <path class="cls-4" d="M1042,178"/>
      <path class="cls-4" d="M1042,178"/>
      <path class="cls-4" d="M1042,178"/>
      <text/>
      <text/>
      <g>
        <path class="cls-5" d="M670.17,270.27c1.42-1.42,2.37-2.9,2.85-4.43.42-1.27,1.03-1.9,1.82-1.9.42,0,.9.26,1.42.79.37,1.9.9,5.72,1.58,11.47l1.9,14.87c0,.95-.58,1.42-1.74,1.42-.63,0-1.19-.53-1.66-1.58-2.8-6.91-6.93-12.66-12.42-17.24-5.49-4.53-11.47-6.8-17.96-6.8s-11.19,1.93-14.44,5.77c-3.24,3.85-4.86,7.94-4.86,12.26,0,5.27,1.77,9.31,5.3,12.1,3.53,2.8,10.81,5.96,21.83,9.49,8.12,2.53,14.2,4.98,18.23,7.36,4.04,2.37,7.42,5.7,10.17,9.97,2.74,4.27,4.11,8.86,4.11,13.76,0,8.33-3.45,15.79-10.36,22.39-6.91,6.59-15.37,9.89-25.39,9.89-9.02,0-18.09-2.82-27.21-8.46-1.79,1.48-2.95,3.22-3.48,5.22-.42,1.69-1.11,2.53-2.06,2.53-.84,0-1.45-1.08-1.82-3.24-.37-2.16-1.13-12.39-2.29-30.69.21-.63.76-.95,1.66-.95.79,0,1.42.58,1.9,1.74,8.12,20.41,19.46,30.61,34.01,30.61,7.22,0,12.88-2.18,16.97-6.53s6.13-9.35,6.13-14.99c0-3.9-1.09-7.49-3.28-10.76-2.19-3.27-5.09-5.91-8.7-7.91-3.61-2-9.32-4.24-17.12-6.72-10.02-3.22-16.84-6.26-20.45-9.14-3.61-2.87-6.26-6.12-7.95-9.73-1.69-3.61-2.53-7.11-2.53-10.48,0-7.01,3.18-13.24,9.53-18.67,6.35-5.43,14.15-8.15,23.37-8.15,3.48,0,7.13.55,10.96,1.66,3.82,1.11,7.82,2.8,11.98,5.06Z"/>
        <path class="cls-5" d="M735.15,352.53c9.04-21.09,13.57-33.49,13.57-37.18,0-1.79-.49-3.6-1.46-5.42s-1.92-3.03-2.85-3.64c-.92-.61-2.31-.96-4.15-1.07-1.27-.05-1.9-.53-1.9-1.42,0-1.16.68-1.74,2.06-1.74l14-.32c6.75,0,10.55.07,11.39.2.84.13,1.27.57,1.27,1.31,0,.69-.87,1.32-2.61,1.9-3.16,1.11-4.75,2.64-4.75,4.59,0,.58.49,2.31,1.47,5.18.98,2.88,2.92,7.74,5.83,14.59l9.59,21.99c3.58-9.02,6.81-17.94,9.7-26.78,2.89-8.83,4.34-13.93,4.34-15.28,0-2.71-1.69-4.22-5.06-4.53-1.95-.21-2.93-.82-2.93-1.82,0-.74.84-1.17,2.53-1.31,1.69-.13,5.22-.2,10.6-.2,3.53,0,5.8.08,6.8.24,1,.16,1.5.58,1.5,1.27s-1.06,1.5-3.16,2.45c-2.64,1.15-4.62,2.66-5.93,4.54-1.32,1.88-2.82,5.8-4.5,11.76-1.37,4.85-4.39,13.45-9.08,25.79l-7.58,20.25c-.42,1.16-.98,1.74-1.66,1.74s-1.5-1.32-2.45-3.96c-.68-1.74-2.95-7.13-6.8-16.16-5.27-12.09-9.11-21.49-11.54-28.19l-.53.44c-1.53,4.54-3.79,10.52-6.79,17.96l-8.21,20.17c-2.42,6.01-3.83,9.18-4.23,9.49s-.73.47-.99.47c-.69,0-1.48-1.13-2.38-3.4-4.33-11.07-8.32-20.91-11.96-29.5l-9.03-20.88c-2.32-5.29-4.02-8.35-5.1-9.19s-2.33-1.31-3.76-1.41c-1.79-.21-2.69-.71-2.69-1.5,0-1.16,1.19-1.74,3.56-1.74l17.96-.32,7.44.16c1.53,0,2.29.4,2.29,1.19,0,1.06-1.03,1.74-3.08,2.06-3.8.63-5.7,1.91-5.7,3.84,0,2.77,5.66,17.23,16.97,43.39Z"/>
        <path class="cls-5" d="M854.16,358.07c-2.58,3.75-5.67,6.55-9.25,8.42-3.59,1.87-7.65,2.81-12.18,2.81-5.33,0-9.51-1.42-12.54-4.27-3.03-2.85-4.55-6.59-4.55-11.24,0-3.48.91-6.72,2.73-9.73,1.82-3.01,3.9-5.17,6.25-6.49s6.47-2.98,12.38-4.99c8.44-2.8,13.5-5.12,15.19-6.96,1.69-1.85,2.53-4.25,2.53-7.21,0-4.71-1.11-8.37-3.32-10.99s-5.35-3.93-9.41-3.93c-3.32,0-5.83.74-7.51,2.22-1.69,1.54-2.98,4.53-3.88,8.98-.95,4.87-3.03,7.31-6.25,7.31-1.16,0-2.44-.58-3.84-1.74-1.4-1.16-2.1-2.87-2.1-5.14,0-3.96,2.19-7.4,6.57-10.32,4.38-2.93,10.39-4.39,18.04-4.39,6.06,0,10.9.86,14.51,2.57,3.61,1.72,5.88,3.68,6.8,5.9s1.38,6.49,1.38,12.83l-.47,20.91c0,8.08.49,13.82,1.46,17.23.98,3.41,2.78,5.11,5.42,5.11.53,0,1.27-.08,2.21-.24l1.34-.16c1.21,0,1.82.44,1.82,1.32,0,2.02-5.19,3.03-15.58,3.03-3.01,0-5.02-.7-6.05-2.1-1.03-1.4-1.6-4.31-1.7-8.74ZM854.16,327.22c-1.58,2.06-5.17,4.56-10.76,7.51-5.54,2.85-9.52,5.56-11.94,8.15-2.43,2.64-3.64,5.8-3.64,9.49,0,3.32.99,6.14,2.97,8.46,1.98,2.32,4.44,3.48,7.4,3.48s5.93-.94,8.62-2.81c2.69-1.87,4.68-4.26,5.97-7.16,1.29-2.9,1.94-7.2,1.94-12.89,0-4.27-.19-9.02-.55-14.24Z"/>
        <path class="cls-5" d="M904.55,300.56c.26,2.27.4,4.32.4,6.17,0,1.58-.13,3.88-.4,6.88,5.22-4.96,9.22-8.16,11.98-9.61,2.77-1.45,5.87-2.18,9.29-2.18,8.12,0,15.04,3.34,20.76,10.01,5.72,6.67,8.58,14.52,8.58,23.53,0,9.76-3.27,17.73-9.81,23.93-6.54,6.2-14.16,9.29-22.86,9.29-6.01,0-12-1.77-17.96-5.3-.9,6.49-1.34,13.63-1.34,21.44,0,4.59.18,8.15.55,10.68l.24,3.08c1,3.32,3.67,5.41,7.99,6.25,1.48.32,2.27.92,2.37,1.82l-.24.79-.55.32c-6.5-.37-11.6-.55-15.3-.55-9.35,0-14.98.08-16.89.24-1.22,0-1.82-.45-1.82-1.34,0-.84.53-1.32,1.58-1.42,4.9-.53,7.98-1.63,9.22-3.32,1.24-1.69,2.03-9.16,2.37-22.43.34-13.26.51-21.56.51-24.88l-.24-21.52.08-12.81c0-6.64-.45-10.89-1.34-12.74-.9-1.85-3.19-2.9-6.88-3.16-1.21-.1-1.82-.55-1.82-1.34,0-.47.22-.84.67-1.11.45-.26,2.84-.42,7.18-.47l13.66-.24ZM903.92,335.76c0,9.65.24,15.82.71,18.51s2.18,5.19,5.1,7.51c2.93,2.32,6.76,3.48,11.51,3.48,6.43,0,11.6-2.75,15.5-8.27,3.9-5.51,5.85-12.25,5.85-20.21,0-9.07-1.99-16.33-5.97-21.79s-8.85-8.19-14.59-8.19-10.01,2.32-13.25,6.96c-3.24,4.64-4.86,11.97-4.86,21.99Z"/>
      </g>
      <path class="cls-2" d="M479.5,214.5"/>
      <g>
        <path class="cls-6" d="M273.82,264.04c1.53,5.91,3.03,14.19,4.51,24.84-.26.42-.54.63-.85.63-.36,0-.75-.21-1.17-.63-3.64-5.85-7.12-10.31-10.45-13.37-3.32-3.06-6.66-5.23-10.01-6.53-3.35-1.29-9.12-1.94-17.29-1.94-7.71,0-13.8.45-18.28,1.34-.42.53-.63,1.5-.63,2.92,0,.37-.05,1.03-.16,1.97-.53,4.21-.79,15.64-.79,34.27,0,.79.05,1.89.16,3.32,4.01.16,6.75.24,8.23.24,6.65,0,11.47-.99,14.45-2.98,2.98-1.99,5.58-6.26,7.8-12.83.37-1.11.89-1.67,1.57-1.67.99,0,1.49.77,1.49,2.3l-.32,3.17c-.42,4.17-.63,8.48-.63,12.92,0,7.19.13,13.66.4,19.42,0,1.8-.48,2.69-1.45,2.69-.71,0-1.2-.63-1.45-1.9-1.11-6.22-3.44-10.7-6.99-13.45-3.54-2.74-11.24-4.11-23.1-4.11-.16,3.85-.24,10.07-.24,18.67,0,11.13.4,18.19,1.19,21.2s2.69,5.39,5.7,7.16c3.01,1.77,8.1,2.65,15.28,2.65,20.53,0,33.77-7.07,39.73-21.2.73-1.74,1.49-2.61,2.27-2.61.83,0,1.25.58,1.25,1.74,0,.63-.13,1.32-.4,2.06-.32,1-1.08,4.75-2.29,11.23-.26,1.37-1.27,5.49-3.01,12.34l-33.14-.08c-4.75,0-11.72-.2-20.92-.59-9.2-.4-17.35-.61-24.44-.63-7.09-.03-10.8-.17-11.11-.44-.32-.26-.47-.55-.47-.87,0-1.05.87-1.58,2.61-1.58,5.85,0,9.7-1.55,11.55-4.66,1.85-3.11,2.77-10.67,2.77-22.68l-.08-16.2.24-15.18c0-3.06-.17-8.84-.51-17.35-.34-8.51-.66-13.37-.95-14.58-.29-1.21-1.11-2.41-2.45-3.6-1.34-1.19-4.31-2.38-8.9-3.6-1.37-.37-2.06-.95-2.06-1.74,0-.95.92-1.42,2.77-1.42l16.14.87c5.7.26,19.7.4,42,.4,14.66,0,22.15.03,22.46.08Z"/>
        <path class="cls-6" d="M320.41,366.63v-3.08c4.9-.71,5.93-1.66,3.96-4.75l-8.54-13.05c-2.61,3.96-5.3,8.23-7.36,11.79-2.29,3.8-1.98,5.06,3.88,6.01v3.08h-22.07v-3.08c7.28-1.03,8.62-1.98,13.21-7.51,3.4-4.03,6.49-8.54,10.05-13.61l-10.36-15.74c-3.56-5.54-4.98-6.57-11.55-7.44v-3.08h24.44v3.08c-4.98.71-5.38,1.74-3.24,4.98l6.72,10.28c2.37-3.64,4.75-7.04,6.64-10.52,2.14-3.48,1.27-4.03-3.8-4.75v-3.08h21.83v3.08c-7.28.87-8.7,1.42-13.05,6.17-2.45,2.69-5.22,6.72-9.25,12.26l11.79,17.32c4.27,6.33,5.85,7.51,12.81,8.54v3.08h-26.1Z"/>
        <path class="cls-6" d="M393.74,355.95c-5.3,6.88-13.29,12.02-20.17,12.02-15.35,0-24.21-11.87-24.21-24.13,0-8.78,4.03-16.61,11.94-22.46,6.49-4.75,13.61-6.57,18.11-6.57h.16c4.83,0,8.7,1.42,10.6,3.08,1.58,1.27,1.9,2.29,1.9,3.56,0,2.69-2.61,5.3-4.11,5.3-.71,0-1.27-.32-2.29-1.34-3.8-3.4-7.83-4.98-12.02-4.98-7.28,0-13.92,5.85-13.92,18.11,0,15.9,11.55,21.04,17.88,21.04,4.9,0,8.86-1.34,14.16-6.25l1.98,2.61Z"/>
        <path class="cls-6" d="M430.29,366.63v-3.08c6.64-.71,7.59-1.5,7.59-9.02v-18.75c0-9.57-3.96-14.08-11.23-14.08-4.27,0-8.62,2.06-11.87,5.62v27.21c0,7.36.71,8.31,7.44,9.02v3.08h-25.63v-3.08c7.04-.71,8.07-1.42,8.07-9.02v-54.98c0-7.28-.32-7.67-7.83-8.38v-2.77c5.54-.79,13.13-2.53,17.96-4.03v38.84c4.43-4.27,10.6-8.38,16.85-8.38,9.65,0,16.45,5.85,16.45,20.01v19.7c0,7.75.87,8.31,7.59,9.02v3.08h-25.39Z"/>
        <path class="cls-6" d="M499.18,367.98c-2.21,0-4.75-1.03-6.01-2.29-1.58-1.5-2.29-3.08-2.85-4.9-4.75,3.01-10.28,7.2-13.61,7.2-8.78,0-14.55-6.96-14.55-14.24,0-5.77,3.16-9.25,9.57-11.31,7.51-2.37,15.66-5.38,18.19-7.51v-2.06c0-8.31-3.8-12.74-9.41-12.74-2.06,0-3.8.79-4.98,2.06-1.5,1.5-2.53,4.11-3.56,7.83-.71,2.06-1.98,2.85-3.8,2.85-2.29,0-5.38-2.37-5.38-5.14,0-1.74,1.5-3.16,3.8-4.75,3.4-2.45,11.39-6.88,17.96-8.15,3.72,0,7.12.87,9.81,2.93,4.35,3.64,5.62,8.46,5.62,14.63v20.8c0,5.14,2.06,6.88,4.19,6.88,1.34,0,2.93-.55,4.19-1.27l1.19,3.08-10.36,6.09ZM489.93,338.95c-2.37,1.19-7.12,3.4-9.57,4.51-4.59,1.98-7.12,4.27-7.12,8.54,0,6.09,4.59,8.78,8.07,8.78,2.77,0,6.57-1.74,8.62-3.8v-18.04Z"/>
        <path class="cls-6" d="M546.56,366.63v-3.08c6.72-.71,7.51-1.66,7.51-9.81v-18.83c0-8.07-3.24-12.89-10.44-12.89-4.43,0-8.78,2.77-12.34,5.7v26.74c0,7.91.63,8.38,7.44,9.1v3.08h-26.1v-3.08c7.83-.95,8.46-1.5,8.46-9.25v-23.26c0-7.51-.79-7.99-6.96-9.1v-2.93c5.62-.87,11.71-2.37,17.17-4.59v9.33c2.37-1.74,4.9-3.56,7.91-5.54,3.32-2.14,6.25-3.4,9.73-3.4,9.33,0,15.27,6.57,15.27,18.04v21.59c0,7.91.71,8.23,7.51,9.1v3.08h-25.15Z"/>
      </g>
      <path class="cls-8" d="M283.39,397.35l10.05,4.4,5.02,2.19,5.1,2.01c3.4,1.33,6.79,2.7,10.2,3.99l10.35,3.58c1.73.58,3.43,1.22,5.18,1.75l5.24,1.57c3.5,1.03,6.97,2.14,10.48,3.09,7.06,1.79,14.05,3.82,21.19,5.23,14.17,3.28,28.58,5.37,42.98,7.04l10.83.99,2.71.25,2.71.15,5.43.3,5.42.3,2.71.15,2.72.04,10.86.15c14.47-.15,28.93-.73,43.28-2.45,7.19-.64,14.31-1.91,21.44-2.94,3.56-.58,7.08-1.35,10.63-2.02l5.3-1.03c1.77-.34,3.51-.78,5.26-1.16,13.98-3.24,27.58-7.55,40.39-13.18,3.19-1.43,6.37-2.87,9.45-4.48,1.51-.85,3.12-1.56,4.6-2.45,1.49-.88,3.04-1.69,4.49-2.63,1.44-.95,2.96-1.81,4.39-2.79,1.41-1,2.86-1.96,4.25-3,.69-.53,1.34-1.09,2.07-1.57.73-.49,1.55-.87,2.43-1.21.87-.34,1.82-.63,2.9-.79,1.09-.16,2.28-.25,3.77-.09l.73.69c.2,1.45.08,2.66-.12,3.79-.21,1.13-.57,2.14-.99,3.08-.45.92-1.03,1.72-1.67,2.45-.64.73-1.36,1.38-2.04,2.06-1.41,1.32-2.89,2.56-4.34,3.84-1.48,1.25-3.01,2.42-4.55,3.6-3.13,2.26-6.32,4.44-9.65,6.38-1.64,1.02-3.36,1.85-5.05,2.79-1.68.95-3.42,1.73-5.15,2.54-13.92,6.44-28.64,10.31-43.27,13.25-1.84.34-3.66.74-5.5,1.03l-5.51.9c-3.68.57-7.34,1.25-11.03,1.73-7.39.84-14.76,1.91-22.18,2.34-14.81,1.33-29.69,1.4-44.51.97l-11.11-.57-2.77-.14-2.77-.25-5.53-.51-5.53-.51c-.92-.09-1.84-.17-2.76-.27l-2.75-.38-11-1.51c-14.6-2.37-29.14-5.17-43.36-9.15-7.17-1.76-14.17-4.14-21.22-6.28-3.5-1.17-6.94-2.49-10.41-3.72l-5.19-1.88c-1.73-.63-3.42-1.38-5.12-2.06l-10.21-4.19c-3.36-1.49-6.69-3.06-10.03-4.59l-5-2.31-4.9-2.53-9.77-5.07.45-.89Z"/>
      <path class="cls-1" d="M588.5,392.5c-.33-1.34,14.75-6,18-7,21.32-6.56,24.06-7.28,25.45-5.68,1.78,2.04-.64,5.38-8.95,25.18-2.45,5.83-5.93,14.33-7,14-1.29-.4,3.94-12.58-2-20-1.38-1.73-2.88-2.58-4.5-3.5-9.75-5.54-20.71-1.8-21-3Z"/>
      <path class="cls-3" d="M612.5,484.5"/>
      <path class="cls-7" d="M640,421"/>
    </g>
  </g>
</svg>